<svg version="1" xmlns="http://www.w3.org/2000/svg" viewBox="0 0 559 897" enable-background="new 0 0 559 897"><path d="M328.9 896.91c-.63.06-1.25.09-1.86.09-16.91 0-25.36-7.45-25.36-22.3 0-19.22 10.56-85.02 31.68-197.36 18.33-97.51 34.13-175.43 47.38-233.77v-.01m-337.44-368.1c-4.22-1.35-8.51-2.03-12.88-2.03-7.61 0-14.59 1.09-20.91 3.27-6.35 2.19-9.51 5.47-9.51 9.84 0 2.63 5.9 13.13 17.75 31.48 11.83 18.38 23.65 40.23 35.48 65.58l12.69 26.22c34.63 77.82 69.27 144.47 103.92 199.99 34.39 55.09 68.33 82.82 101.88 83.25m260.64-490.93h-.01c-4.13-1.42-8.34-2.13-12.64-2.13-7.61 0-13.11 3.72-16.49 11.15-3.39 7.45-7.19 20.34-11.4 38.69-2.55 13.11-17.35 61.63-44.37 145.56-6.77 21.85-16.7 49.83-29.79 83.93-13.11 34.11-24.31 60.34-33.58 78.69-10.16 20.11-23.25 37.59-39.32 52.44-16.05 14.87-34.62 22.3-55.73 22.3h-.02" stroke="#000" stroke-miterlimit="10" fill="none"/><path d="M541.032 155.432c-9.296 22.745-21.123 55.522-35.479 98.356-37.185 112.783-65.495 237.386-84.931 373.758-2.549 22.745-5.079 47.204-7.609 73.426-2.53 26.222-3.795 48.52-3.795 66.895 0 10.479 3.163 20.535 9.507 30.145 6.325 9.635 9.507 15.743 9.507 18.375 0 5.239-5.501 14.626-16.484 28.183-11.002 13.558-23.25 26.023-36.763 37.396-13.533 11.348-24.516 17.034-32.95 17.034-16.906 0-25.359-7.449-25.359-22.298 0-19.219 10.561-85.022 31.684-197.358s38.872-198.673 53.247-259.013c-20.279 23.614-38.45 41.965-54.512 55.076-16.062 13.111-35.92 19.666-59.572 19.666-33.811 0-68.025-27.736-102.68-83.259s-69.29-122.169-103.926-199.99l-12.689-26.222c-11.826-25.353-23.653-47.204-35.479-65.579-11.845-18.351-17.749-28.854-17.749-31.486 0-4.37 3.163-7.648 9.507-9.833 6.325-2.185 13.302-3.278 20.912-3.278 27.87 0 52.806 27.538 74.792 82.613 30.4 75.189 60.608 140.122 90.624 194.751 29.997 54.653 61.048 81.968 93.173 81.968 21.123 0 39.696-7.425 55.758-22.298 16.062-14.849 29.154-32.33 39.313-52.443 9.277-18.35 20.471-44.572 33.581-78.69 13.091-34.093 23.02-62.078 29.786-83.929 27.026-83.929 41.823-132.449 44.373-145.56 4.217-18.35 8.012-31.238 11.405-38.687 3.372-7.426 8.873-11.151 16.483-11.151 9.277 0 18.152 3.278 26.604 9.833 8.453 6.556 12.689 14.204 12.689 22.944 0 14.874-2.549 30.617-7.609 47.229-5.08 16.612-13.533 41.096-25.359 73.426z" stroke="#000" stroke-miterlimit="10" fill="none"/></svg>