<?xml version="1.0" encoding="UTF-8"?>
<svg id="Layer_1" data-name="Layer 1" xmlns="http://www.w3.org/2000/svg" viewBox="0 0 984.62 1212.47">
  <defs>
    <style>
      .cls-1 {
        fill: none;
        stroke: #000;
        stroke-miterlimit: 10;
        stroke-width: 2px;
      }
    </style>
  </defs>
  <path class="cls-1" d="M661.67,543.39c-125.53,166.72-353.84,494.68-353.84,604.57,0,27.45,12.77,50.91,35.79,59.75"/>
  <path class="cls-1" d="M866.06,774.03c.23,1.04,.35,2.14,.35,3.27,0,20.74-60.91,69.99-79.06,80.35-82.94,62.21-241.06,191.81-304.56,266.98-27.22,31.11-73.87,86.83-117.94,86.83-7.82,0-14.91-1.33-21.24-3.76"/>
  <path class="cls-1" d="M326.13,656.17c11.91,1.07,28.74-4.16,49.09-21.43,184.03-152.93,49.25-24.62,456.19-395.28,14.26-12.96,51.84-51.84,72.58-51.84,11.09,0,21.73,5.92,30.92,14.81"/>
  <path class="cls-1" d="M579.38,885.48c15.25-6.49,42.83-29.9,162.61-91.33,82.07-41.65,120.14-38.14,124.07-20.12"/>
  <path class="cls-1" d="M326.13,656.17c-13.12-1.18-20.27-10.01-19.6-18.83,2.59-38.88,47.95-79.06,252.72-340.85,37.58-47.95,136.08-165.89,136.08-224.21,0-21.25-7.62-37.05-19.74-48.3"/>
  <path class="cls-1" d="M507.5,198.39c-.02,.3-.05,.6-.09,.9,0,31.1-60.91,101.09-171.07,233.28C96.58,718.99,110.84,759.16,105.65,787.68c-5.34,30.27,18.67,59.93,48.1,75.53"/>
  <path class="cls-1" d="M675.59,23.98c-17.45-16.2-44.21-22.98-70.98-22.98C481.49,1,217.11,131.9,109.54,197.99c-42.77,27.22-66.1,45.36-80.35,94.61l-19.44,69.98c-7.78,25.92-10.37,42.77-7.78,51.84,2.32,8.12,8.8,11.04,18.5,11.57"/>
  <path class="cls-1" d="M507.5,198.39c.59-.3,1.18-.59,1.78-.88,7.78,1.3,18.14,5.18,16.85,14.26,0,31.1-60.91,101.09-171.07,233.28-239.76,286.42-225.5,326.59-230.69,355.11-4.14,23.48,9.38,46.59,29.38,63.06"/>
  <path class="cls-1" d="M661.67,543.39l71.82-62.06,2.59,2.59c-92.02,114.05-409.54,546.91-409.54,676.51,0,18.75,5.96,35.64,17.07,47.27"/>
  <path class="cls-1" d="M579.38,885.48c-1.74,8.92,.56,13.93,7.66,14.46,18.14,1.3,22.03-15.55,173.66-93.31,51.86-26.32,86.14-34.6,105.36-32.59"/>
  <path class="cls-1" d="M661.67,543.39l-271.62,234.72c-38.88,33.7-123.12,108.86-176.26,108.86-19.98,0-42.5-9.33-60.04-23.77"/>
  <path class="cls-1" d="M675.59,23.98c-15.39-7.29-33.83-10.51-52.26-10.51-123.12,0-387.51,130.9-495.07,196.99-42.77,27.22-66.1,45.36-80.35,94.61l-19.44,69.98c-7.53,25.1-10.18,41.67-7.99,50.94"/>
  <path class="cls-1" d="M579.38,885.48c6.82-35.03,75.88-130.37,160.59-251.22,186.62-265.68,243.65-320.11,243.65-356.4,0-23.73-21.68-65.19-48.71-75.42"/>
  <path class="cls-1" d="M326.13,656.17c5.06,13.93,30.52,22.68,67.81-8.96,184.03-152.93,49.25-24.62,456.19-395.28,14.26-12.96,51.84-51.84,72.58-51.84,4.15,0,8.24,.83,12.21,2.34"/>
  <path class="cls-1" d="M507.5,198.39c-197.16,98-305.73,162.6-423.31,224.62-9.07,6.48-31.1,15.55-41.47,15.55-11.66,0-19.44-2.59-22.03-11.66-.08-.29-.14-.6-.21-.9"/>
</svg>